<svg width="12" height="12" viewBox="0 0 12 12" fill="none" xmlns="http://www.w3.org/2000/svg">
<path d="M1 6.63232C0.585786 6.63232 0.25 6.29654 0.25 5.88232C0.25 5.46811 0.585786 5.13232 1 5.13232L1 6.63232ZM11.5303 5.35199C11.8232 5.64489 11.8232 6.11976 11.5303 6.41265L6.75736 11.1856C6.46447 11.4785 5.98959 11.4785 5.6967 11.1856C5.40381 10.8927 5.40381 10.4179 5.6967 10.125L9.93934 5.88232L5.6967 1.63968C5.40381 1.34679 5.40381 0.871917 5.6967 0.579023C5.98959 0.28613 6.46447 0.28613 6.75736 0.579023L11.5303 5.35199ZM1 5.13232L11 5.13232V6.63232L1 6.63232L1 5.13232Z" fill="#FAFAFA"/>
</svg>
